<svg width="199" height="106" viewBox="0 0 199 106" fill="none" xmlns="http://www.w3.org/2000/svg">
<mask id="mask0_5_14" style="mask-type:alpha" maskUnits="userSpaceOnUse" x="0" y="23" width="199" height="96">
<path d="M25.0909 93.8523C21.1136 93.8523 17.5114 92.8295 14.2841 90.7841C11.0795 88.7159 8.53409 85.6818 6.64773 81.6818C4.78409 77.6591 3.85227 72.7273 3.85227 66.8864C3.85227 60.8864 4.81818 55.8977 6.75 51.9205C8.68182 47.9205 11.25 44.9318 14.4545 42.9545C17.6818 40.9545 21.2159 39.9545 25.0568 39.9545C27.9886 39.9545 30.4318 40.4545 32.3864 41.4545C34.3636 42.4318 35.9545 43.6591 37.1591 45.1364C38.3864 46.5909 39.3182 48.0227 39.9545 49.4318H40.3977V23.1818H54.8864V93H40.5682V84.6136H39.9545C39.2727 86.0682 38.3068 87.5114 37.0568 88.9432C35.8295 90.3523 34.2273 91.5227 32.25 92.4545C30.2955 93.3864 27.9091 93.8523 25.0909 93.8523ZM29.6932 82.2955C32.0341 82.2955 34.0114 81.6591 35.625 80.3864C37.2614 79.0909 38.5114 77.2841 39.375 74.9659C40.2614 72.6477 40.7045 69.9318 40.7045 66.8182C40.7045 63.7045 40.2727 61 39.4091 58.7045C38.5455 56.4091 37.2955 54.6364 35.6591 53.3864C34.0227 52.1364 32.0341 51.5114 29.6932 51.5114C27.3068 51.5114 25.2955 52.1591 23.6591 53.4545C22.0227 54.75 20.7841 56.5455 19.9432 58.8409C19.1023 61.1364 18.6818 63.7955 18.6818 66.8182C18.6818 69.8636 19.1023 72.5568 19.9432 74.8977C20.8068 77.2159 22.0455 79.0341 23.6591 80.3523C25.2955 81.6477 27.3068 82.2955 29.6932 82.2955ZM90.6903 94.0227C85.304 94.0227 80.6676 92.9318 76.7812 90.75C72.9176 88.5455 69.9403 85.4318 67.8494 81.4091C65.7585 77.3636 64.7131 72.5795 64.7131 67.0568C64.7131 61.6705 65.7585 56.9432 67.8494 52.875C69.9403 48.8068 72.8835 45.6364 76.679 43.3636C80.4972 41.0909 84.9744 39.9545 90.1108 39.9545C93.5653 39.9545 96.7813 40.5114 99.7585 41.625C102.759 42.7159 105.372 44.3636 107.599 46.5682C109.849 48.7727 111.599 51.5455 112.849 54.8864C114.099 58.2045 114.724 62.0909 114.724 66.5455V70.5341H70.5085V61.5341H101.054C101.054 59.4432 100.599 57.5909 99.6903 55.9773C98.7813 54.3636 97.5199 53.1023 95.9062 52.1932C94.3153 51.2614 92.4631 50.7955 90.3494 50.7955C88.1449 50.7955 86.1903 51.3068 84.4858 52.3295C82.804 53.3295 81.4858 54.6818 80.5312 56.3864C79.5767 58.0682 79.0881 59.9432 79.0653 62.0114V70.5682C79.0653 73.1591 79.5426 75.3977 80.4972 77.2841C81.4744 79.1705 82.8494 80.625 84.6222 81.6477C86.3949 82.6705 88.4972 83.1818 90.929 83.1818C92.5426 83.1818 94.0199 82.9545 95.3608 82.5C96.7017 82.0455 97.8494 81.3636 98.804 80.4545C99.7585 79.5455 100.486 78.4318 100.986 77.1136L114.418 78C113.736 81.2273 112.338 84.0455 110.224 86.4545C108.134 88.8409 105.429 90.7045 102.111 92.0455C98.8153 93.3636 95.0085 94.0227 90.6903 94.0227ZM171.614 40.6364L153.307 93H136.943L118.636 40.6364H133.977L144.852 78.1023H145.398L156.239 40.6364H171.614ZM184.253 93.8864C182.003 93.8864 180.071 93.0909 178.457 91.5C176.866 89.8864 176.071 87.9545 176.071 85.7045C176.071 83.4773 176.866 81.5682 178.457 79.9773C180.071 78.3864 182.003 77.5909 184.253 77.5909C186.435 77.5909 188.344 78.3864 189.98 79.9773C191.616 81.5682 192.435 83.4773 192.435 85.7045C192.435 87.2045 192.048 88.5795 191.276 89.8295C190.526 91.0568 189.537 92.0455 188.31 92.7955C187.082 93.5227 185.73 93.8864 184.253 93.8864Z" fill="black"/>
<path d="M0 112.091H198.537V118.636H0V112.091Z" fill="black"/>
</mask>
<g mask="url(#mask0_5_14)">
<rect x="-33" y="10.9655" width="264" height="84.069" fill="url(#paint0_diamond_5_14)"/>
</g>
<defs>
<radialGradient id="paint0_diamond_5_14" cx="0" cy="0" r="1" gradientUnits="userSpaceOnUse" gradientTransform="translate(-13 -5.99998) rotate(28.3702) scale(313.105 1045.12)">
<stop stop-color="#FFCC70"/>
<stop offset="0.591626" stop-color="#C850C0"/>
<stop offset="0.981595" stop-color="#AACEF7"/>
</radialGradient>
</defs>
</svg>
